<svg width="22" height="22" viewBox="0 0 22 22" fill="none" xmlns="http://www.w3.org/2000/svg">
<path d="M11.0845 0.311523C5.14412 0.311523 0.311554 5.14408 0.311554 11.0845C0.311554 17.0249 5.14412 21.8575 11.0845 21.8575C17.0249 21.8575 21.8575 17.0249 21.8575 11.0845C21.8575 5.14408 17.0249 0.311523 11.0845 0.311523ZM15.8725 12.2815H11.0845C10.4231 12.2815 9.88753 11.746 9.88753 11.0845V6.29651C9.88753 5.63504 10.4231 5.09951 11.0845 5.09951C11.746 5.09951 12.2815 5.63504 12.2815 6.29651V9.8875H15.8725C16.534 9.8875 17.0695 10.423 17.0695 11.0845C17.0695 11.746 16.534 12.2815 15.8725 12.2815Z" fill="#FF3811"/>
</svg>
