<svg width="281" height="388" viewBox="0 0 281 388" fill="none" xmlns="http://www.w3.org/2000/svg">
<path d="M268.097 295.262C272.981 288.761 240.714 277.13 241.153 254.279C241.537 233.404 268.783 228.055 267.988 208.935C267.137 188.471 235.528 184.466 235.501 163.618C235.501 147.543 254.241 145.129 255.778 127.929C257.616 107.273 231.083 104.53 222.44 77.2626C214.374 51.806 232.894 39.5441 219.395 19.3818C217.639 16.7758 206.663 1.08483 191.134 0.865375C165.836 0.481331 133.157 41.0802 137.986 76.2202C142.019 105.792 169.622 109.358 171.241 140.794C172.613 167.431 153.132 171.875 159.47 192.531C166.961 216.972 196.731 218.892 202.85 246.461C206.06 260.89 198.898 264.923 204.77 275.127C217.172 296.689 262.692 302.422 268.097 295.262Z" fill="white"/>
<path d="M256.491 298.801C255.311 298.801 254.077 298.774 252.76 298.691C238.108 297.786 213.084 290.846 204.222 275.429C200.956 269.751 201.588 265.856 202.328 261.357C202.959 257.516 203.673 253.155 202.219 246.598C199.063 232.361 189.323 224.955 179.884 217.768C171.323 211.239 162.461 204.518 158.839 192.723C155.519 181.887 159.086 175.496 163.202 168.116C166.961 161.341 171.241 153.66 170.582 140.849C169.759 124.692 162.131 116.188 154.065 107.191C146.794 99.0708 139.303 90.7042 137.327 76.33C134.309 54.2749 145.723 32.3295 157.385 19.1349C168.14 6.98264 180.433 0.124713 191.079 0.289303C206.609 0.508757 217.776 16.0077 219.834 19.1074C227.187 30.0801 225.212 38.9406 223.099 48.2948C221.206 56.7163 219.258 65.4121 222.962 77.1255C227.078 90.1555 235.364 97.5347 242.635 104.036C250.482 111.031 257.287 117.093 256.299 128.039C255.531 136.817 250.427 141.782 245.488 146.583C240.604 151.328 236.022 155.827 236.022 163.645C236.022 173.904 243.787 179.885 252.019 186.194C259.921 192.256 268.07 198.538 268.509 208.907C268.921 218.673 262.418 224.763 255.503 231.237C248.808 237.519 241.867 244.02 241.675 254.279C241.428 267.611 252.595 277.075 260.744 283.988C266.588 288.953 270.814 292.519 268.482 295.619C267.027 297.676 262.72 298.801 256.491 298.801ZM190.804 1.46887C180.707 1.46887 168.607 8.32679 158.345 19.903C146.848 32.8782 135.599 54.4669 138.562 76.1105C140.483 90.1007 147.864 98.3302 154.998 106.313C162.845 115.091 170.967 124.143 171.817 140.74C172.503 153.907 168.14 161.752 164.272 168.665C160.293 175.825 156.863 181.997 160.019 192.339C163.531 203.778 171.845 210.087 180.652 216.78C190.256 224.077 200.161 231.621 203.426 246.297C204.935 253.072 204.194 257.571 203.536 261.521C202.795 265.965 202.219 269.504 205.264 274.798C213.88 289.803 238.437 296.552 252.814 297.457C260.36 297.923 266.04 296.936 267.576 294.878C269.222 292.711 265.162 289.282 260.003 284.921C251.662 277.843 240.248 268.16 240.495 254.252C240.687 243.471 247.821 236.805 254.708 230.331C261.403 224.05 267.713 218.152 267.329 208.935C266.918 199.114 259.345 193.299 251.333 187.127C243.239 180.9 234.87 174.453 234.87 163.618C234.87 155.278 239.864 150.396 244.693 145.677C249.467 141.014 254.406 136.213 255.147 127.874C256.052 117.532 249.494 111.662 241.867 104.886C234.458 98.2753 226.062 90.8139 221.837 77.4547C218.023 65.4121 220.108 56.1677 221.947 47.993C224.087 38.5017 225.925 30.2721 218.874 19.7384C216.843 16.7209 206.032 1.68832 191.106 1.46887C190.996 1.46887 190.887 1.46887 190.804 1.46887Z" fill="black"/>
<path d="M257.808 291.586C257.753 291.586 257.698 291.586 257.616 291.559C238.053 285.497 225.733 276.965 220.959 266.185C217.337 258.01 219.395 251.399 221.562 244.404C223.757 237.381 226.007 230.112 222.77 220.429C219.34 210.169 213.166 205.561 207.212 201.117C201.423 196.783 195.962 192.695 193.52 183.945C190.091 171.573 196.511 162.767 202.74 154.263C208.776 146.034 215.005 137.503 212.59 125.542C210.642 115.886 204.359 110.263 197.691 104.31C190.475 97.8638 182.298 90.567 178.484 76.9609C175.631 66.8386 175.933 56.0305 179.362 44.7835C179.472 44.4543 179.801 44.2898 180.131 44.372C180.46 44.4818 180.625 44.811 180.542 45.1401C177.195 56.1402 176.893 66.7289 179.664 76.6317C183.396 89.8812 191.078 96.7666 198.514 103.405C205.346 109.495 211.794 115.256 213.797 125.323C216.294 137.804 209.901 146.555 203.727 155.004C197.389 163.645 191.408 171.82 194.7 183.643C197.033 191.982 202.328 195.96 207.925 200.157C214.044 204.738 220.355 209.456 223.894 220.072C227.269 230.139 224.937 237.601 222.687 244.788C220.574 251.564 218.571 257.955 222.029 265.718C226.666 276.142 238.738 284.454 257.945 290.407C258.274 290.517 258.439 290.846 258.357 291.175C258.302 291.422 258.082 291.586 257.808 291.586Z" fill="black"/>
<path d="M279.704 384.004C281.899 378.984 253.94 371.468 230.425 336.081C216.185 314.657 210.697 293.726 205.731 274.085C193.439 225.476 203.536 215.957 190.475 193.326C174.808 166.169 155.053 176.62 132.745 148.667C105.252 114.186 125.831 86.3974 97.6247 55.3447C82.2319 38.3645 54.8487 23.2771 30.7854 31.0128C16.2432 35.7036 1.01509 49.3372 0.630953 64.2052C0.246819 78.5519 13.9384 83.3251 24.6667 100.772C43.8186 131.934 20.99 150.615 33.1726 182.216C49.7177 225.092 101.713 216.451 123.965 267.529C132.91 288.103 125.227 291.23 133.157 310.871C159.937 377.173 275.341 393.934 279.704 384.004Z" fill="white"/>
<path d="M268.482 387.268C268.125 387.268 267.796 387.268 267.439 387.268C251.306 387.021 223.127 381.453 196.539 369.492C174.04 359.37 144.681 341.018 132.581 311.118C128.685 301.489 128.52 295.729 128.328 290.133C128.136 284.043 127.944 278.282 123.389 267.776C111.975 241.524 92.7955 231.237 74.2748 221.306C57.0162 212.062 40.6905 203.311 32.6237 182.436C26.9989 167.842 28.7549 155.937 30.4561 144.443C32.4865 130.754 34.4346 117.807 24.1453 101.101C19.9473 94.2703 15.3103 89.4149 11.222 85.1081C4.82891 78.4148 -0.219701 73.1205 0.027242 64.1777C0.438814 49.0903 15.8865 35.155 30.6207 30.4367C54.684 22.701 82.4513 37.7061 98.0911 54.9332C112.469 70.7888 114.252 85.547 116.118 101.156C117.901 115.996 119.74 131.358 133.239 148.283C143.995 161.752 153.928 166.141 163.558 170.393C173.491 174.782 182.875 178.897 191.024 193.024C197.966 205.039 198.432 213.269 199.118 225.696C199.749 236.943 200.518 250.933 206.362 273.92C211.109 292.684 216.487 313.971 230.974 335.751C245.818 358.108 262.281 369.163 272.104 375.774C278.058 379.779 281.323 381.974 280.308 384.278C279.183 386.692 273.475 387.268 268.482 387.268ZM44.3124 29.5589C39.8125 29.5589 35.3401 30.1899 30.9774 31.5889C16.6547 36.1974 1.61865 49.6664 1.23452 64.2052C1.01501 72.6541 5.899 77.7838 12.1 84.2577C16.2432 88.5919 20.9351 93.5296 25.188 100.442C35.6968 117.532 33.7212 130.7 31.6634 144.607C29.9622 155.937 28.2336 167.678 33.7487 181.969C41.6509 202.433 57.7845 211.074 74.851 220.209C93.5638 230.249 112.935 240.618 124.541 267.255C129.206 277.98 129.398 284.098 129.59 290.05C129.755 295.537 129.947 301.188 133.761 310.624C154.586 362.196 232.401 385.513 267.494 386.034C275.341 386.144 278.661 384.937 279.183 383.757C279.786 382.385 276.274 380.026 271.418 376.762C261.512 370.096 244.94 358.959 229.959 336.41C215.362 314.465 209.956 293.068 205.182 274.222C199.338 251.125 198.542 237.052 197.911 225.75C197.225 213.488 196.786 205.369 189.981 193.6C182.024 179.83 173.244 175.962 163.092 171.463C153.79 167.376 143.254 162.712 132.306 148.997C118.615 131.824 116.749 116.298 114.938 101.265C113.1 85.8488 111.344 71.2551 97.2131 55.7013C84.6464 41.9306 64.205 29.5589 44.3124 29.5589Z" fill="black"/>
<path d="M259.564 381.617C259.482 381.617 259.4 381.59 259.317 381.562C236.352 371.934 217.968 360.55 204.688 347.767C193.932 337.397 186.277 325.821 181.86 313.312C177.25 300.227 176.729 287.856 176.235 275.896C175.494 257.983 174.781 241.057 160.513 223.94C150.47 211.87 139.962 207.097 129.81 202.488C118.478 197.331 107.804 192.476 100.451 177.772C95.3473 167.54 95.2375 159.311 95.1552 149.765C95.0455 140.356 94.9357 129.712 90.2987 114.049C85.6891 98.5496 78.3082 83.7914 68.3207 70.1853C68.1287 69.9109 68.1835 69.5269 68.4579 69.3349C68.7323 69.1429 69.1164 69.1977 69.3085 69.472C79.3783 83.1879 86.8415 98.0833 91.4785 113.719C96.1704 129.547 96.2802 140.301 96.3899 149.792C96.4997 159.558 96.582 167.266 101.576 177.251C108.737 191.598 118.752 196.152 130.358 201.418C140.154 205.862 151.294 210.91 161.501 223.199C176.015 240.646 176.729 257.763 177.497 275.896C177.991 287.773 178.512 300.063 183.067 312.956C192.753 340.47 218.572 363.211 259.839 380.493C260.141 380.63 260.305 380.986 260.168 381.288C260.031 381.48 259.811 381.617 259.564 381.617Z" fill="black"/>
</svg>
